# xmcd
#
# Track frame offsets: 
#        150
#        19910
#        32834
#        52467
#        68799
#        85952
#        107110
#        122933
#        136741
#        156873
#        172485
#        193319
#        209370
#
# Disc length: 3054 seconds
#
# Revision: 0
# Processed by: cddbd v1.5.2PL0 Copyright (c) Steve Scherf et al.
# Submitted via: ExactAudioCopy v0.99pb5
#
DISCID=cc0bec0d
DTITLE=Ray Harris - Kinda Sets The Tone 
DYEAR=2016
DGENRE=Bluegrass
TTITLE0=Pontiac County Blues 
TTITLE1=Baby, The Rain's Gonna Fall
TTITLE2=Big Old American Cars 
TTITLE3=Rain On Your Thunder (The Spanish Imposition)
TTITLE4=KInda Sets The Tone 
TTITLE5=Ira Louvin Smashed His Mandolin
TTITLE6=Twisted Poisoned Mind
TTITLE7=Late Night Phone Calls 
TTITLE8=Travellin' Through The Midwest
TTITLE9=Margaret's Waltz
TTITLE10=Somethin' About Memphis 
TTITLE11=Trucker's Chapel
TTITLE12=No Exit - No End 
EXTD=
EXTT0=
EXTT1=
EXTT2=
EXTT3=
EXTT4=
EXTT5=
EXTT6=
EXTT7=
EXTT8=
EXTT9=
EXTT10=
EXTT11=
EXTT12=
PLAYORDER=
